<?xml version="1.0" encoding="utf-8"?>
<!-- Generator: Adobe Illustrator 24.1.1, SVG Export Plug-In . SVG Version: 6.00 Build 0)  -->
<svg version="1.1" id="Capa_1" xmlns="http://www.w3.org/2000/svg" xmlns:xlink="http://www.w3.org/1999/xlink" x="0px" y="0px"
	 viewBox="0 0 249.1 56.4" style="enable-background:new 0 0 249.1 56.4;" xml:space="preserve">
<style type="text/css">
	.st0{fill:#FFFFFF;}
	.st1{fill:#E12832;}
</style>
<path class="st0" d="M87,46.6c-0.1,1.3,0.3,2.7,0.9,3.9c0.6,1,1.8,1.5,3.6,1.5c0.7,0,1.3,0,1.9-0.1c0.6-0.1,1.2-0.2,1.8-0.4l0.2,3.9
	c-1.7,0.6-3.4,0.8-5.2,0.8c-3,0-5.2-0.9-6.5-2.6c-1.4-1.9-2.1-4.3-2-6.7V0h3.1C86,0,87,1,87,2.2V46.6z"/>
<path class="st0" d="M114.9,21.3c-1.6,0-3.2,0.3-4.7,1.1c-1.3,0.7-2.5,1.7-3.4,2.9c-0.9,1.2-1.7,2.6-2.2,4c-0.5,1.5-0.8,3-0.8,4.6
	h20.5c0.4-3.1-0.2-6.3-1.8-9C120.8,22.4,118.4,21.2,114.9,21.3 M115.1,17.2c2.2-0.1,4.4,0.4,6.4,1.2c1.7,0.8,3.3,1.9,4.5,3.4
	c1.2,1.5,2.1,3.2,2.6,5c0.5,2,0.8,4,0.8,6.1c0,1.7-0.2,3.5-0.5,5.2h-25.1c0.1,4.6,1.2,8.1,3.4,10.5c2.2,2.4,5.5,3.6,9.8,3.6
	c2,0,4-0.2,5.9-0.7c0.9-0.2,1.9-0.5,2.8-0.8c1.2-0.4,2.5,0.2,2.9,1.4c0,0.1,0,0.1,0.1,0.2l0.3,1.3c-1.9,0.9-3.8,1.6-5.8,2
	c-2.2,0.5-4.5,0.8-6.8,0.8c-2.7,0.1-5.5-0.4-8-1.5c-2.2-0.9-4.1-2.3-5.6-4.1c-1.5-1.8-2.7-3.9-3.3-6.2c-0.8-2.5-1.1-5.1-1.1-7.7
	c0-2.7,0.4-5.4,1.2-8c0.7-2.3,1.8-4.4,3.3-6.2c1.4-1.8,3.2-3.2,5.3-4.1C110.3,17.7,112.7,17.2,115.1,17.2"/>
<path class="st0" d="M153,21.5c-2,0-3.9,0.4-5.7,1.2c-1.6,0.7-3.1,1.7-4.5,2.9V51c2.4,0.9,5,1.3,7.6,1.2c4.7,0,8.2-1.4,10.6-4.2
	s3.6-6.6,3.6-11.3c0-2-0.2-4-0.7-5.9c-0.4-1.7-1.1-3.3-2.1-4.8c-0.9-1.4-2.2-2.5-3.6-3.3C156.6,21.9,154.8,21.5,153,21.5 M137.5,0
	h3.1c1.2,0,2.2,1,2.2,2.2c0,0,0,0,0,0v19.5c1.3-1.3,2.9-2.4,4.6-3.1c2.1-0.9,4.4-1.4,6.8-1.3c2.3,0,4.6,0.5,6.6,1.5
	c1.9,0.9,3.7,2.3,5,4c1.4,1.8,2.5,3.9,3.1,6.1c0.7,2.5,1.1,5.1,1.1,7.7c0,2.7-0.4,5.4-1.3,8c-0.8,2.3-2.1,4.5-3.8,6.3
	c-1.7,1.8-3.8,3.2-6.2,4.1c-2.7,1-5.5,1.6-8.4,1.5c-4.4,0.1-8.8-0.8-12.9-2.4V0z"/>
<path class="st0" d="M193.1,21.3c-1.6,0-3.2,0.3-4.7,1.1c-1.3,0.7-2.5,1.7-3.5,2.8c-0.9,1.2-1.7,2.6-2.2,4c-0.5,1.5-0.8,3-0.8,4.6
	h20.5c0.4-3.1-0.2-6.3-1.8-9C199.1,22.4,196.6,21.2,193.1,21.3 M193.4,17.2c2.2-0.1,4.4,0.4,6.4,1.2c1.7,0.8,3.2,1.9,4.4,3.4
	c1.2,1.5,2.1,3.2,2.6,5c0.5,2,0.8,4,0.8,6.1c0,1.7-0.2,3.5-0.5,5.2H182c0.1,4.6,1.2,8.1,3.4,10.5c2.2,2.4,5.5,3.6,9.8,3.6
	c2,0,4-0.2,5.9-0.7c1-0.2,1.9-0.5,2.8-0.8c1.2-0.4,2.5,0.2,2.9,1.4c0,0.1,0.1,0.2,0.1,0.2l0.3,1.3c-1.9,0.9-3.8,1.6-5.8,2
	c-2.2,0.5-4.5,0.8-6.8,0.8c-2.7,0.1-5.5-0.4-8-1.5c-2.2-0.9-4.1-2.3-5.6-4.1c-1.5-1.8-2.7-3.9-3.4-6.2c-0.8-2.5-1.1-5.1-1.1-7.7
	c0-2.7,0.4-5.4,1.2-7.9c0.7-2.3,1.8-4.4,3.3-6.2c1.4-1.8,3.2-3.2,5.3-4.1C188.5,17.7,190.9,17.2,193.4,17.2"/>
<path class="st0" d="M216.4,55.6V18h2.7c1.3,0,2.3,1,2.3,2.3c0,0,0,0,0,0v3.1c1.5-1.9,3.3-3.5,5.5-4.6c2.2-1.1,4.7-1.6,7.1-1.6
	c2.1-0.1,4.2,0.5,6,1.5c1.7,1,3.1,2.4,4.2,4c1.1,1.8,2,3.8,2.4,5.9c0.5,2.3,0.8,4.6,0.8,7v20H242V36.1c0-1.9-0.1-3.9-0.5-5.8
	c-0.3-1.6-0.8-3.1-1.6-4.6c-0.7-1.3-1.7-2.3-3-3c-1.4-0.8-3-1.1-4.6-1.1c-2.2,0-4.3,0.6-6.1,1.8c-1.7,1.1-3.3,2.4-4.6,4v28.2H216.4z
	"/>
<rect x="37" y="0.1" class="st1" width="23.5" height="23.1"/>
<path class="st1" d="M25.2,34.8V0.5C10.7,2.6,0,15,0,29.6v26.7h30.1c13.4,0.1,25.3-8.7,29.2-21.5H25.2z"/>
</svg>
